<?xml version="1.0" encoding="UTF-8"?>
<svg width="24px" height="24px" viewBox="0 0 24 24" version="1.1" xmlns="http://www.w3.org/2000/svg" xmlns:xlink="http://www.w3.org/1999/xlink">
    <!-- Generator: Sketch 53.2 (72643) - https://sketchapp.com -->
    <title>accept</title>
    <desc>Created with Sketch.</desc>
    <g id="Page-1" stroke="none" stroke-width="1" fill="none" fill-rule="evenodd">
        <g id="accept" fill="#70C67A" fill-rule="nonzero">
            <path d="M12,24 C5.372583,24 0,18.627417 0,12 C0,5.372583 5.372583,0 12,0 C18.627417,0 24,5.372583 24,12 C24,18.627417 18.627417,24 12,24 Z M12,2 C6.4771525,2 2,6.4771525 2,12 C2,17.5228475 6.4771525,22 12,22 C17.5228475,22 22,17.5228475 22,12 C22,6.4771525 17.5228475,2 12,2 L12,2 Z M11.92,16.333 C11.88449,16.48127 11.8082976,16.6166846 11.7,16.724 C11.5110961,16.9141138 11.2467221,17.009215 10.98,16.983 C10.55162,17.012896 10.1603062,16.7402252 10.04,16.328 L7.22,13.51 C6.90401502,13.1538907 6.92003115,12.6132929 7.2565441,12.276515 C7.59305704,11.939737 8.13364212,11.9232954 8.49,12.239 L10.67,14.423 L15.13,6.516 C15.2593798,6.27926904 15.4789203,6.10485575 15.7387761,6.03235976 C15.9986318,5.95986377 16.2767553,5.99543601 16.51,6.131 C16.9926832,6.42882323 17.1519979,7.05590352 16.87,7.548 L11.92,16.333 Z"></path>
        </g>
    </g>
</svg>