<?xml version="1.0" encoding="UTF-8"?>
<svg width="24px" height="24px" viewBox="0 0 24 24" version="1.1" xmlns="http://www.w3.org/2000/svg" xmlns:xlink="http://www.w3.org/1999/xlink">
    <!-- Generator: Sketch 53.2 (72643) - https://sketchapp.com -->
    <title>write</title>
    <desc>Created with Sketch.</desc>
    <g id="Page-1" stroke="none" stroke-width="1" fill="none" fill-rule="evenodd">
        <g id="search" transform="translate(0.000000, -63.000000)" fill="#9DAAB1" fill-rule="nonzero">
            <g id="edit" transform="translate(0.000000, 62.000000)">
                <path d="M22,25 L2,25 C0.8954305,25 0,24.1045695 0,23 L0,3 C0,1.8954305 0.8954305,1 2,1 L14.81,1 L12.81,3 L2,3 L2,23 L22,23 L22,12.193 L24,10.193 L24,23 C24,24.1045695 23.1045695,25 22,25 Z M10,20 L5.01,20.014 L5,15 L18.55,1.561 C18.9181602,1.19142581 19.418342,0.983681913 19.94,0.983681913 C20.461658,0.983681913 20.9618398,1.19142581 21.33,1.561 L23.41,3.651 C23.7798132,4.02065796 23.9875851,4.52211492 23.9875851,5.045 C23.9875851,5.56788508 23.7798132,6.06934204 23.41,6.439 L10,20 Z M7,18 L10,18 L7,15 L7,18 Z M19.94,2.955 L9,14 L11,16 L22.02,5.045 L19.94,2.955 Z" id="write"></path>
            </g>
        </g>
    </g>
</svg>