<?xml version="1.0" encoding="UTF-8"?>
<svg width="24px" height="24px" viewBox="0 0 24 24" version="1.1" xmlns="http://www.w3.org/2000/svg" xmlns:xlink="http://www.w3.org/1999/xlink">
    <!-- Generator: Sketch 53.2 (72643) - https://sketchapp.com -->
    <title>graph1</title>
    <desc>Created with Sketch.</desc>
    <g id="Page-1" stroke="none" stroke-width="1" fill="none" fill-rule="evenodd">
        <path d="M23.46,11.089 L15.71,15.681 L15.71,15.681 C15.5565876,15.8267748 15.3601481,15.9190312 15.15,15.944 C14.8269804,16.0294555 14.4837168,15.9198452 14.27,15.663 L10,11.435 L5.72,15.681 C5.3235774,16.0721505 4.6864226,16.0721505 4.29,15.681 L4.29,15.681 C3.89961806,15.2905001 3.89961806,14.6574999 4.29,14.267 L9.28,9.317 C9.68047967,8.92625835 10.3195203,8.92625835 10.72,9.317 L15.05,13.61 L22.58,9.143 C22.8107083,9.00214911 23.0918071,8.97026133 23.3482032,9.05585522 C23.6045993,9.14144911 23.8101705,9.33580416 23.91,9.587 L23.91,9.587 C24.1498934,10.1301968 23.9590496,10.7671909 23.46,11.089 L23.46,11.089 Z M23,22 C23.5522847,22 24,22.4477153 24,23 C24,23.5522847 23.5522847,24 23,24 L1,24 C0.44771525,24 0,23.5522847 0,23 L0,1 C0,0.44771525 0.44771525,0 1,0 C1.55228475,0 2,0.44771525 2,1 L2,22 L23,22 Z" id="graph1" fill="#FFFFFF"></path>
    </g>
</svg>