<?xml version="1.0" encoding="UTF-8"?>
<svg width="22px" height="27px" viewBox="0 0 22 27" version="1.1" xmlns="http://www.w3.org/2000/svg" xmlns:xlink="http://www.w3.org/1999/xlink">
    <!-- Generator: Sketch 53.2 (72643) - https://sketchapp.com -->
    <title>file_</title>
    <desc>Created with Sketch.</desc>
    <g id="Page-1" stroke="none" stroke-width="1" fill="none" fill-rule="evenodd">
        <g id="accept" transform="translate(0.000000, -162.000000)" fill="#5C8EDC" fill-rule="nonzero">
            <g id="file+" transform="translate(0.000000, 161.000000)">
                <path d="M20,28 L2,28 C0.8954305,28 0,27.1045695 0,26 L0,3 C0,1.8954305 0.8954305,1 2,1 L14.94,1 C15.2457952,0.968815713 15.5497035,1.07463438 15.77,1.289 L21.68,7.2 C21.8889448,7.41146482 21.9949036,7.70376512 21.97,8 L22,8 L22,26 C22,26.530433 21.7892863,27.0391408 21.4142136,27.4142136 C21.0391408,27.7892863 20.530433,28 20,28 Z M15,3.478 L15,8 L19.52,8 L15,3.478 Z M20,10 L14,10 C13.4477153,10 13,9.55228475 13,9 L13,3 L2,3 L2,26 L20,26 L20,10 Z M8,17 L10,17 L10,15 C10,14.4477153 10.4477153,14 11,14 C11.5522847,14 12,14.4477153 12,15 L12,17 L14,17 C14.5522847,17 15,17.4477153 15,18 C15,18.5522847 14.5522847,19 14,19 L12,19 L12,21 C12,21.5522847 11.5522847,22 11,22 C10.4477153,22 10,21.5522847 10,21 L10,19 L8,19 C7.44771525,19 7,18.5522847 7,18 C7,17.4477153 7.44771525,17 8,17 Z" id="file_"></path>
            </g>
        </g>
    </g>
</svg>