<?xml version="1.0" encoding="UTF-8"?>
<svg width="24px" height="24px" viewBox="0 0 24 24" version="1.1" xmlns="http://www.w3.org/2000/svg" xmlns:xlink="http://www.w3.org/1999/xlink">
    <!-- Generator: Sketch 53.2 (72643) - https://sketchapp.com -->
    <title>search</title>
    <desc>Created with Sketch.</desc>
    <g id="Page-1" stroke="none" stroke-width="1" fill="none" fill-rule="evenodd">
        <g id="search" fill="#9DAAB1">
            <path d="M9,-6.31088724e-30 C13.9705627,-2.84217094e-14 18,4.02943725 18,9 C18,13.9705627 13.9705627,18 9,18 C4.02943725,18 0,13.9705627 0,9 C0,4.02943725 4.02943725,-2.84217094e-14 9,-2.84217094e-14 L9,-6.31088724e-30 Z M9,2 C12.8659932,2 16,5.13400675 16,9 C16,12.8659932 12.8659932,16 9,16 C5.13400675,16 2,12.8659932 2,9 C2,5.13400675 5.13400675,2 9,2 Z M15.71,14.282 L23.72,22.266 C24.0925516,22.6643966 24.0819093,23.2864959 23.6959488,23.6719166 C23.3099884,24.0573372 22.6878748,24.0671088 22.29,23.694 L14.28,15.71 C13.9074484,15.3116034 13.9180907,14.6895041 14.3040512,14.3040834 C14.6900116,13.9186628 15.3121252,13.9088912 15.71,14.282 L15.71,14.282 Z"></path>
        </g>
    </g>
</svg>